<?xml version="1.0" standalone="no"?>
<svg xmlns:xlink="http://www.w3.org/1999/xlink" id="wave" style="transform:rotate(0deg); transition: 0.3s" viewBox="0 0 1440 160" version="1.1" xmlns="http://www.w3.org/2000/svg"><defs><linearGradient id="sw-gradient-0" x1="0" x2="0" y1="1" y2="0"><stop stop-color="rgba(248, 249, 250, 1)" offset="0%"/><stop stop-color="rgba(248, 249, 250, 1)" offset="100%"/></linearGradient></defs><path style="transform:translate(0, 0px); opacity:1" fill="url(#sw-gradient-0)" d="M0,96L30,101.3C60,107,120,117,180,114.7C240,112,300,96,360,74.7C420,53,480,27,540,32C600,37,660,75,720,98.7C780,123,840,133,900,122.7C960,112,1020,80,1080,61.3C1140,43,1200,37,1260,50.7C1320,64,1380,96,1440,114.7C1500,133,1560,139,1620,125.3C1680,112,1740,80,1800,58.7C1860,37,1920,27,1980,24C2040,21,2100,27,2160,32C2220,37,2280,43,2340,58.7C2400,75,2460,101,2520,98.7C2580,96,2640,64,2700,66.7C2760,69,2820,107,2880,101.3C2940,96,3000,48,3060,48C3120,48,3180,96,3240,96C3300,96,3360,48,3420,48C3480,48,3540,96,3600,112C3660,128,3720,112,3780,93.3C3840,75,3900,53,3960,61.3C4020,69,4080,107,4140,120C4200,133,4260,123,4290,117.3L4320,112L4320,160L4290,160C4260,160,4200,160,4140,160C4080,160,4020,160,3960,160C3900,160,3840,160,3780,160C3720,160,3660,160,3600,160C3540,160,3480,160,3420,160C3360,160,3300,160,3240,160C3180,160,3120,160,3060,160C3000,160,2940,160,2880,160C2820,160,2760,160,2700,160C2640,160,2580,160,2520,160C2460,160,2400,160,2340,160C2280,160,2220,160,2160,160C2100,160,2040,160,1980,160C1920,160,1860,160,1800,160C1740,160,1680,160,1620,160C1560,160,1500,160,1440,160C1380,160,1320,160,1260,160C1200,160,1140,160,1080,160C1020,160,960,160,900,160C840,160,780,160,720,160C660,160,600,160,540,160C480,160,420,160,360,160C300,160,240,160,180,160C120,160,60,160,30,160L0,160Z"/></svg>